<?xml version="1.0" encoding="utf-8"?>
<!-- Generator: Adobe Illustrator 14.0.0, SVG Export Plug-In . SVG Version: 6.00 Build 43363)  -->
<!DOCTYPE svg PUBLIC "-//W3C//DTD SVG 1.1//EN" "http://www.w3.org/Graphics/SVG/1.1/DTD/svg11.dtd">
<svg version="1.1" id="Layer_1" xmlns="http://www.w3.org/2000/svg" xmlns:xlink="http://www.w3.org/1999/xlink" x="0px" y="0px"
	 width="292.424px" height="442.439px" viewBox="0 0 292.424 442.439" enable-background="new 0 0 292.424 442.439"
	 xml:space="preserve">
<g>
	<path fill="#35B9C4" d="M99.013,111.724l-12.036,5.627c-4.985,2.331-8.17,7.337-8.17,12.84v131.528h20.206V111.724z"/>
	<path fill="#076E76" d="M59.868,130.026l-12.036,5.626c-4.985,2.331-8.171,7.337-8.171,12.84v106.141
		c0,3.914,3.173,7.086,7.087,7.086h13.12V130.026z"/>
	<path fill="#FAE400" d="M252.967,39.747l-15.305,7.155c-2.991,1.399-4.902,4.402-4.902,7.704V261.72h13.12
		c3.914,0,7.087-3.173,7.087-7.087V39.747z"/>
	<path fill="#FFD02A" d="M214.463,57.748l-12.037,5.628c-4.985,2.331-8.17,7.336-8.17,12.839v185.504h20.207V57.748z"/>
	<path fill="#54BFCF" d="M175.814,75.818l-12.036,5.627c-4.985,2.33-8.171,7.336-8.171,12.839v96.487h13.12
		c3.914,0,7.087-3.173,7.087-7.086V75.818z"/>
	<path fill="#54BFCF" d="M137.166,93.887l-12.036,5.627c-4.985,2.331-8.17,7.336-8.17,12.839v71.332
		c0,3.914,3.172,7.086,7.086,7.086h13.12V93.887z"/>
</g>
<g>
	<path fill="#424242" d="M51.477,68.719c-2.054,0-3.867-0.26-5.44-0.78c-1.574-0.52-2.9-1.3-3.98-2.34s-1.894-2.34-2.44-3.9
		c-0.547-1.56-0.82-3.366-0.82-5.42v-12.84c0-1.227,0.32-2.153,0.96-2.78c0.64-0.626,1.546-0.94,2.72-0.94
		c1.2,0,2.113,0.314,2.74,0.94c0.626,0.627,0.94,1.554,0.94,2.78v12.92c0,2.054,0.453,3.6,1.36,4.64
		c0.906,1.04,2.226,1.56,3.96,1.56c1.706,0,3.013-0.52,3.92-1.56c0.906-1.04,1.36-2.586,1.36-4.64v-12.92
		c0-1.227,0.313-2.153,0.94-2.78c0.626-0.626,1.526-0.94,2.7-0.94c1.173,0,2.066,0.314,2.68,0.94c0.613,0.627,0.92,1.554,0.92,2.78
		v12.84c0,2.747-0.474,5.047-1.42,6.9c-0.947,1.854-2.354,3.24-4.22,4.16C56.49,68.259,54.196,68.719,51.477,68.719z"/>
	<path fill="#424242" d="M72.596,68.639c-1.174,0-2.08-0.327-2.72-0.98c-0.64-0.653-0.96-1.566-0.96-2.74v-21.48
		c0-1.227,0.32-2.153,0.96-2.78c0.64-0.626,1.546-0.94,2.72-0.94c1.2,0,2.113,0.314,2.74,0.94c0.626,0.627,0.94,1.554,0.94,2.78
		v8.72h0.08l9.72-10.72c0.506-0.533,1.046-0.953,1.62-1.26c0.573-0.306,1.22-0.46,1.94-0.46c1.12,0,1.926,0.287,2.42,0.86
		c0.493,0.574,0.72,1.24,0.68,2c-0.04,0.76-0.354,1.46-0.94,2.1l-9.68,10.28v-3l10.16,11.48c0.693,0.773,1.04,1.567,1.04,2.38
		c0,0.813-0.274,1.487-0.82,2.02c-0.547,0.533-1.354,0.8-2.42,0.8c-0.907,0-1.634-0.18-2.18-0.54c-0.547-0.36-1.14-0.9-1.78-1.62
		l-9.76-10.92h-0.08v9.36c0,1.174-0.307,2.087-0.92,2.74C74.742,68.312,73.822,68.639,72.596,68.639z"/>
</g>
<g>
	<path fill="#424242" d="M38.057,328.234c-1.867,0-3.302-0.514-4.305-1.54c-1.004-1.025-1.505-2.473-1.505-4.34v-38.85
		c0-1.913,0.536-3.371,1.61-4.375c1.073-1.003,2.59-1.506,4.55-1.506c1.633,0,2.928,0.315,3.885,0.945
		c0.956,0.63,1.831,1.669,2.625,3.115l15.05,27.02h-2.45l14.98-27.02c0.84-1.446,1.738-2.485,2.695-3.115
		c0.956-0.63,2.251-0.945,3.885-0.945c1.866,0,3.301,0.503,4.305,1.506c1.003,1.004,1.505,2.462,1.505,4.375v38.85
		c0,1.867-0.49,3.314-1.47,4.34c-0.98,1.026-2.427,1.54-4.34,1.54c-1.867,0-3.302-0.514-4.305-1.54
		c-1.004-1.025-1.505-2.473-1.505-4.34v-24.08h1.47l-11.27,19.6c-0.654,1.027-1.342,1.798-2.065,2.311
		c-0.724,0.514-1.692,0.77-2.905,0.77c-1.167,0-2.124-0.256-2.87-0.77c-0.747-0.513-1.424-1.283-2.03-2.311l-11.34-19.67h1.61v24.15
		c0,1.867-0.49,3.314-1.47,4.34C41.417,327.721,39.97,328.234,38.057,328.234z"/>
	<path fill="#424242" d="M104.906,327.604c-2.194,0-3.862-0.571-5.005-1.715c-1.144-1.144-1.715-2.788-1.715-4.936v-36.05
		c0-2.146,0.571-3.791,1.715-4.935c1.143-1.144,2.811-1.715,5.005-1.715h23.73c1.68,0,2.94,0.42,3.78,1.26s1.26,2.054,1.26,3.64
		c0,1.634-0.42,2.882-1.26,3.745c-0.84,0.864-2.1,1.295-3.78,1.295h-18.13v9.38h16.59c1.633,0,2.881,0.42,3.745,1.261
		c0.863,0.84,1.295,2.076,1.295,3.71s-0.432,2.869-1.295,3.71c-0.864,0.84-2.112,1.26-3.745,1.26h-16.59v10.149h18.13
		c1.68,0,2.94,0.433,3.78,1.296s1.26,2.089,1.26,3.675c0,1.634-0.42,2.87-1.26,3.71s-2.1,1.26-3.78,1.26H104.906z"/>
	<path fill="#424242" d="M151.386,328.234c-1.96,0-3.454-0.514-4.48-1.54c-1.026-1.025-1.54-2.543-1.54-4.55v-38.15
		c0-2.053,0.513-3.628,1.54-4.725c1.026-1.096,2.381-1.646,4.061-1.646c1.493,0,2.66,0.28,3.5,0.841c0.84,0.56,1.772,1.494,2.8,2.8
		l22.19,27.72h-1.96v-25.34c0-1.96,0.501-3.453,1.505-4.48c1.003-1.025,2.484-1.54,4.444-1.54s3.441,0.515,4.445,1.54
		c1.003,1.027,1.505,2.521,1.505,4.48v38.78c0,1.773-0.467,3.185-1.399,4.234c-0.935,1.051-2.194,1.575-3.78,1.575
		c-1.587,0-2.835-0.292-3.745-0.875s-1.879-1.505-2.905-2.765l-22.189-27.79h1.96v25.34c0,2.007-0.502,3.524-1.505,4.55
		C154.827,327.721,153.346,328.234,151.386,328.234z"/>
	<path fill="#424242" d="M209.415,299.395c-0.746,1.027-1.574,1.587-2.484,1.68c-0.91,0.095-1.692-0.093-2.345-0.56
		c-0.654-0.466-1.027-1.131-1.12-1.995c-0.095-0.863,0.303-1.808,1.189-2.835c1.166-1.354,1.937-2.706,2.311-4.061
		c0.373-1.353,0.56-2.565,0.56-3.64l0.42,3.43c-2.146,0-3.874-0.605-5.18-1.819c-1.308-1.213-1.96-2.87-1.96-4.971
		c0-2.053,0.618-3.697,1.854-4.935c1.236-1.236,2.905-1.854,5.005-1.854c2.193,0,3.896,0.734,5.11,2.204
		c1.213,1.471,1.82,3.513,1.82,6.125c0,1.308-0.129,2.638-0.385,3.99c-0.258,1.354-0.747,2.789-1.471,4.306
		S210.908,297.621,209.415,299.395z"/>
	<path fill="#424242" d="M244.205,328.374c-1.867,0-3.815-0.129-5.846-0.385c-2.029-0.257-3.955-0.641-5.774-1.154
		c-1.82-0.514-3.454-1.12-4.9-1.82c-1.26-0.606-2.146-1.411-2.66-2.415c-0.514-1.003-0.699-2.065-0.56-3.186
		c0.14-1.119,0.536-2.11,1.189-2.975c0.653-0.863,1.517-1.446,2.591-1.75c1.072-0.303,2.285-0.151,3.64,0.455
		c1.773,0.84,3.78,1.494,6.02,1.96c2.24,0.467,4.341,0.7,6.301,0.7c3.08,0,5.237-0.408,6.475-1.226
		c1.236-0.815,1.855-1.83,1.855-3.045c0-1.072-0.433-1.936-1.295-2.59c-0.864-0.652-2.393-1.213-4.586-1.68l-8.189-1.75
		c-4.48-0.934-7.817-2.566-10.01-4.9c-2.194-2.333-3.29-5.343-3.29-9.029c0-2.427,0.501-4.632,1.505-6.615
		c1.003-1.983,2.426-3.675,4.27-5.075s4.036-2.485,6.58-3.255c2.543-0.771,5.378-1.155,8.505-1.155c2.427,0,4.889,0.27,7.386,0.805
		c2.495,0.537,4.654,1.343,6.475,2.415c1.073,0.561,1.843,1.33,2.31,2.311c0.467,0.979,0.653,1.995,0.561,3.045
		c-0.094,1.05-0.455,1.972-1.085,2.765c-0.63,0.794-1.47,1.319-2.521,1.575c-1.05,0.257-2.299,0.082-3.745-0.525
		c-1.354-0.605-2.882-1.061-4.585-1.364c-1.704-0.304-3.349-0.455-4.935-0.455c-1.727,0-3.197,0.199-4.41,0.595
		c-1.214,0.397-2.135,0.969-2.765,1.715c-0.63,0.747-0.945,1.61-0.945,2.59c0,0.98,0.408,1.81,1.226,2.485
		c0.815,0.677,2.32,1.249,4.515,1.715l8.12,1.75c4.525,0.98,7.91,2.59,10.149,4.83c2.24,2.24,3.36,5.157,3.36,8.75
		c0,2.427-0.49,4.62-1.47,6.58c-0.98,1.96-2.38,3.629-4.2,5.005c-1.82,1.377-4.014,2.439-6.58,3.186
		C250.317,328,247.425,328.374,244.205,328.374z"/>
</g>
<g>
	<path fill="#424242" d="M50.447,392.354c-1.867,0-3.815-0.129-5.845-0.385c-2.03-0.257-3.955-0.641-5.775-1.154
		c-1.82-0.514-3.454-1.12-4.9-1.82c-1.26-0.606-2.147-1.411-2.66-2.415c-0.514-1.003-0.7-2.065-0.56-3.186
		c0.14-1.119,0.536-2.11,1.19-2.975c0.653-0.863,1.516-1.446,2.59-1.75c1.073-0.303,2.286-0.151,3.64,0.455
		c1.773,0.84,3.78,1.494,6.02,1.96c2.24,0.467,4.34,0.7,6.3,0.7c3.08,0,5.238-0.408,6.475-1.226c1.236-0.815,1.855-1.83,1.855-3.045
		c0-1.072-0.432-1.936-1.295-2.59c-0.864-0.652-2.392-1.213-4.585-1.68l-8.19-1.75c-4.48-0.934-7.817-2.566-10.01-4.9
		c-2.194-2.333-3.29-5.343-3.29-9.029c0-2.427,0.501-4.632,1.505-6.615c1.003-1.983,2.426-3.675,4.27-5.075
		c1.843-1.4,4.036-2.485,6.58-3.255c2.543-0.771,5.378-1.155,8.505-1.155c2.426,0,4.888,0.27,7.385,0.805
		c2.496,0.537,4.655,1.343,6.475,2.415c1.073,0.561,1.843,1.33,2.31,2.311c0.466,0.979,0.653,1.995,0.56,3.045
		c-0.094,1.05-0.455,1.972-1.085,2.765c-0.63,0.794-1.47,1.319-2.52,1.575c-1.05,0.257-2.299,0.082-3.745-0.525
		c-1.354-0.605-2.882-1.061-4.585-1.364c-1.704-0.304-3.349-0.455-4.935-0.455c-1.727,0-3.197,0.199-4.41,0.595
		c-1.214,0.397-2.135,0.969-2.765,1.715c-0.63,0.747-0.945,1.61-0.945,2.59c0,0.98,0.408,1.81,1.225,2.485
		c0.816,0.677,2.321,1.249,4.515,1.715l8.12,1.75c4.526,0.98,7.91,2.59,10.15,4.83c2.24,2.24,3.36,5.157,3.36,8.75
		c0,2.427-0.49,4.62-1.47,6.58s-2.38,3.629-4.2,5.005c-1.82,1.377-4.014,2.439-6.58,3.186
		C56.56,391.979,53.667,392.354,50.447,392.354z"/>
</g>
<g>
	<path fill="#424242" d="M83.627,392.214c-2.054,0-3.64-0.572-4.76-1.715c-1.12-1.143-1.68-2.765-1.68-4.865v-37.45
		c0-2.146,0.56-3.779,1.68-4.899c1.12-1.12,2.706-1.681,4.76-1.681c2.1,0,3.698,0.561,4.795,1.681
		c1.096,1.12,1.645,2.754,1.645,4.899v13.091h20.37v-13.091c0-2.146,0.548-3.779,1.645-4.899c1.096-1.12,2.695-1.681,4.795-1.681
		c2.053,0,3.628,0.561,4.725,1.681c1.096,1.12,1.645,2.754,1.645,4.899v37.45c0,2.101-0.549,3.723-1.645,4.865
		c-1.097,1.143-2.672,1.715-4.725,1.715c-2.1,0-3.699-0.572-4.795-1.715c-1.097-1.143-1.645-2.765-1.645-4.865v-13.79h-20.37v13.79
		c0,2.101-0.537,3.723-1.61,4.865C87.383,391.642,85.773,392.214,83.627,392.214z"/>
	<path fill="#424242" d="M138.927,391.584c-2.194,0-3.862-0.571-5.005-1.715c-1.144-1.144-1.715-2.788-1.715-4.936v-36.05
		c0-2.146,0.571-3.791,1.715-4.935c1.143-1.144,2.811-1.715,5.005-1.715h23.729c1.681,0,2.94,0.42,3.78,1.26s1.26,2.054,1.26,3.64
		c0,1.634-0.42,2.882-1.26,3.745c-0.84,0.864-2.1,1.295-3.78,1.295h-18.13v9.38h16.59c1.634,0,2.881,0.42,3.745,1.261
		c0.863,0.84,1.295,2.076,1.295,3.71s-0.432,2.869-1.295,3.71c-0.864,0.84-2.111,1.26-3.745,1.26h-16.59v10.149h18.13
		c1.681,0,2.94,0.433,3.78,1.296s1.26,2.089,1.26,3.675c0,1.634-0.42,2.87-1.26,3.71s-2.1,1.26-3.78,1.26H138.927z"/>
</g>
<g>
	<path fill="#424242" d="M180.018,391.584c-2.194,0-3.862-0.571-5.005-1.715c-1.145-1.144-1.715-2.788-1.715-4.936v-36.05
		c0-2.146,0.57-3.791,1.715-4.935c1.143-1.144,2.811-1.715,5.005-1.715h13.72c8.586,0,15.225,2.146,19.915,6.439
		c4.69,4.294,7.035,10.36,7.035,18.2c0,3.92-0.607,7.409-1.82,10.465c-1.214,3.058-2.964,5.647-5.25,7.771
		c-2.287,2.124-5.099,3.733-8.435,4.83c-3.337,1.097-7.152,1.645-11.445,1.645H180.018z M186.178,381.154h6.72
		c2.473,0,4.607-0.304,6.405-0.91c1.796-0.606,3.29-1.493,4.479-2.66c1.19-1.166,2.076-2.636,2.66-4.41
		c0.583-1.772,0.875-3.873,0.875-6.3c0-4.853-1.19-8.435-3.57-10.745c-2.38-2.31-5.997-3.465-10.85-3.465h-6.72V381.154z"/>
</g>
<g>
	<path fill="#424242" d="M240.147,392.354c-1.867,0-3.815-0.129-5.846-0.385c-2.029-0.257-3.955-0.641-5.774-1.154
		c-1.82-0.514-3.454-1.12-4.9-1.82c-1.26-0.606-2.146-1.411-2.66-2.415c-0.514-1.003-0.699-2.065-0.56-3.186
		c0.14-1.119,0.536-2.11,1.189-2.975c0.653-0.863,1.517-1.446,2.591-1.75c1.072-0.303,2.285-0.151,3.64,0.455
		c1.773,0.84,3.78,1.494,6.02,1.96c2.24,0.467,4.341,0.7,6.301,0.7c3.08,0,5.237-0.408,6.475-1.226
		c1.236-0.815,1.855-1.83,1.855-3.045c0-1.072-0.433-1.936-1.295-2.59c-0.864-0.652-2.393-1.213-4.586-1.68l-8.189-1.75
		c-4.48-0.934-7.817-2.566-10.01-4.9c-2.194-2.333-3.29-5.343-3.29-9.029c0-2.427,0.501-4.632,1.505-6.615
		c1.003-1.983,2.426-3.675,4.27-5.075s4.036-2.485,6.58-3.255c2.543-0.771,5.378-1.155,8.505-1.155c2.427,0,4.889,0.27,7.386,0.805
		c2.495,0.537,4.654,1.343,6.475,2.415c1.073,0.561,1.843,1.33,2.31,2.311c0.467,0.979,0.653,1.995,0.561,3.045
		c-0.094,1.05-0.455,1.972-1.085,2.765c-0.63,0.794-1.47,1.319-2.521,1.575c-1.05,0.257-2.299,0.082-3.745-0.525
		c-1.354-0.605-2.882-1.061-4.585-1.364c-1.704-0.304-3.349-0.455-4.935-0.455c-1.727,0-3.197,0.199-4.41,0.595
		c-1.214,0.397-2.135,0.969-2.765,1.715c-0.63,0.747-0.945,1.61-0.945,2.59c0,0.98,0.408,1.81,1.226,2.485
		c0.815,0.677,2.32,1.249,4.515,1.715l8.12,1.75c4.525,0.98,7.91,2.59,10.149,4.83c2.24,2.24,3.36,5.157,3.36,8.75
		c0,2.427-0.49,4.62-1.47,6.58c-0.98,1.96-2.38,3.629-4.2,5.005c-1.82,1.377-4.014,2.439-6.58,3.186
		C246.26,391.979,243.367,392.354,240.147,392.354z"/>
</g>
</svg>
